<svg version="1.2" xmlns="http://www.w3.org/2000/svg" viewBox="0 0 672 672">
    <style>
        .r-logo {
            fill: #000;
        }

        @media (prefers-color-scheme: dark) {
            .r-logo {
                fill: #FFF;
            }
        }
    </style>
    <path class="r-logo" d="m0 214.2v-214.2h672.5v672.5h-672.5v-212.9h36.7v176.2h599.1v-599.1h-599.1l0.5 178z" />
    <path class="r-logo"
        d="m443.6 323.6q-10.4 8.1-23.7 15.6-12.7 7.5-32.9 12.1 2.9 2.9 9.3 10.4 6.3 6.9 12.1 16.7l71.5 121.2 51.4 10.9v33.5h-136.2v-33.5l-75.6-148.3h-55.4v136.2l54.8 12.1v33.5h-178.2v-33.5l48.4-12.1v-324.3l-48.4-12.1v-33.4h215.8q27.7 0 48.4 5.2 21.4 5.1 37.5 16.7 20.8 14.4 32.9 38.6 12.1 23.7 12.1 47.9 0 24.3-12.1 47.9-11.5 23.1-31.7 38.7zm-179.5-152.9v149.4h65.2q31.8 0 52.5-17.9 11.6-9.8 17.9-25.9 7-16.8 7-35.8 0-17.3-7-31.2-6.9-14.4-18.4-23.6-9.8-8.1-23.1-11.6-12.7-3.4-31.2-3.4z" />
</svg>